<svg height="44" viewBox="0 0 14 44" width="14" xmlns="http://www.w3.org/2000/svg"><g fill="none" fill-rule="evenodd"><path d="m0 44h14v-44h-14z"/><path d="m9.3442 14.6294c.496-.588.847-1.404.847-2.22 0-.114-.01-.228-.031-.321-.805.032-1.766.538-2.344 1.209-.455.516-.878 1.332-.878 2.159 0 .123.02.247.031.289.051.01.134.02.217.02.722 0 1.632-.485 2.158-1.136m3.729 2.892c-.093.072-1.725.991-1.725 3.036 0 2.365 2.076 3.202 2.138 3.223-.011.052-.331 1.146-1.095 2.262-.682.981-1.394 1.962-2.479 1.962-1.084 0-1.363-.63-2.613-.63-1.219 0-1.652.651-2.643.651-.992 0-1.684-.909-2.479-2.025-.919-1.311-1.663-3.346-1.663-5.277 0-3.099 2.014-4.741 3.997-4.741 1.053 0 1.931.692 2.592.692.63 0 1.611-.733 2.809-.733.454 0 2.086.041 3.161 1.58" fill="#fff"/></g></svg>